<svg xmlns="http://www.w3.org/2000/svg" viewBox="0 0 142.43 134.45"><defs><style>.cls-1{fill:#c1272d;}</style></defs><g id="Layer_2" data-name="Layer 2"><g id="Layer_1-2" data-name="Layer 1"><path class="cls-1" d="M94.94,106.43c-5.32.73-10.38,1.5-15.46,2.06a20.09,20.09,0,0,1-4.38-.5c-1-.12-2.13-.6-3-.3-6.51,2.23-13.09,1.59-20,.65a14.17,14.17,0,0,0,.4,2.11c1.5,4.24,3.11,8.44,4.54,12.71a35.92,35.92,0,0,1,1.36,5.73c.55,3.47-1.18,5.54-4.7,5.55a130.11,130.11,0,0,1-22.9-1.63,17.39,17.39,0,0,0-4.77.14,18.33,18.33,0,0,1-7.36-.62c-2.31-.69-4.65-1.44-7.17-.91-.5.1-1.54-.39-1.62-.76a4.52,4.52,0,0,1,.28-2.59c.12-.3,1.18-.4,1.76-.29,2.2.45,4.38,1,6.57,1.55l.16-.42a4.47,4.47,0,0,0-.78-.53c-3.16-1.26-6.33-2.5-9.5-3.75-.86-.35-1.7-.77-2.57-1.08-1.29-.47-2.6-.88-3.9-1.31-.87-.28-2.1-.44-1.9-1.63a7.28,7.28,0,0,1,1.5-3c.16-.22,1.49.06,1.88.48A11.79,11.79,0,0,0,9,121.22c3.15,1,6.37,1.73,9.56,2.56a7.07,7.07,0,0,0,1.34,0c-.55-1.05-.95-1.93-1.44-2.76-1.25-2.15-2.48-4.31-3.84-6.39a19.53,19.53,0,0,0-2.19-2.37c-.91-1-.83-1.75.34-2.36a4.28,4.28,0,0,1,2.17-.68c.61.07,1.63.73,1.65,1.17.14,2.8,2.19,4.51,3.56,6.57A25.37,25.37,0,0,0,23,120.25a5.07,5.07,0,0,0,1.28.7c.25-.47.76-1,.68-1.41-.55-3-1.22-5.94-1.87-8.91,0-.14-.21-.25-.24-.39-.17-.93-.7-2.46-.39-2.66a6.16,6.16,0,0,1,3.2-.72c.36,0,1.05,1,1,1.52A21.29,21.29,0,0,0,29,119.61a5.86,5.86,0,0,0,1,1.19,5.47,5.47,0,0,0,.89-1.32c.75-2.72,2.18-5.27,1.73-8.27-.15-1,.69-1.44,1.67-1.25,2.43.46,2.74,1.47,1.54,3.63A14.4,14.4,0,0,0,34.56,118c-.28,1.62-.13,3.32-.4,5-.24,1.47.4,2,1.65,2.22,2.82.4,5.65.75,8.47,1.14,1.32.18,2.64.41,3.95.62-2.19-4.24-4.39-8.38-6.48-12.58a25.72,25.72,0,0,1-1.93-4.9c-1.18-4.47.65-8.52,4.94-10.13a67.7,67.7,0,0,1,17.86-4.45,6.46,6.46,0,0,0,1.54-.55,5.45,5.45,0,0,0-.58-1.51C62.3,91.18,60.82,89.7,59.64,88c-2.5-3.57-2.93-7.68-2.61-11.88A32.35,32.35,0,0,1,57.91,70c.5-1.86,1.57-3.57,2.22-5.4a11.46,11.46,0,0,0,.72-3.69c0-.47-.85-1-1.39-1.43-1-.79-2.38-1.31-3.12-2.31-1.88-2.53-3.53-5.24-5.2-7.91a6.24,6.24,0,0,0-3.35-3.06A2.61,2.61,0,0,1,46,43.87c-.69-5.07-1.45-10.13-2.1-15.21a5.88,5.88,0,0,0-1.7-3.8A56.7,56.7,0,0,1,37,18.68c-1.32-1.75-2.61-3.45-4.66-4.44-.5-.24-1.11-1.05-1-1.5A2.73,2.73,0,0,1,32.58,11c.37-.21,1.29.17,1.71.55,1.44,1.34,2.75,2.81,4.15,4.18a5.92,5.92,0,0,0,1.28.73,4.23,4.23,0,0,0,.61-1.17C41,11.66,41.44,8,40,4.45c-.31-.75-.88-1.4-1.15-2.16-.18-.49-.22-1.47,0-1.6A5.49,5.49,0,0,1,41.4,0c.43,0,1.12.78,1.21,1.3.52,2.94.88,5.92,1.32,8.88a4,4,0,0,0,2.63,3.52c1.12.4,1.87.12,2.27-.89,1.11-2.81,2.93-5.37,3-8.56,0-.39.61-1.14.73-1.1a7.41,7.41,0,0,1,2.52,1.19,1.66,1.66,0,0,1,0,1.64c-2.45,2.06-2.5,5-3,7.77-.21,1.22-.32,2.46-.54,4.22,1.94-1.79,3.64-3.22,5.15-4.83,1.37-1.45,2-1.75,3.22-.89s1.23,2.09-.1,2.83A18.59,18.59,0,0,0,51.6,24a4.92,4.92,0,0,0-.2,2.56C51.89,30,52.49,33.31,53,36.68c.63,4,2.81,7.19,5.25,10.24,1.64,2,3.39,4,5.11,6a12.17,12.17,0,0,0,1.09,1,22.34,22.34,0,0,0,3.82-7.74c.69-3.07,1.59-6,1.19-9.17a2.63,2.63,0,0,1,1.64-2.75,25.45,25.45,0,0,0,7.53-6.12,7.39,7.39,0,0,1,10.79-.41,10.75,10.75,0,0,1,1.74,2.89c1.32,2.58,2.66,5.12,5,7a2.53,2.53,0,0,1,.68,3.26c-1.26,2.33-.83,4.68-.62,7.1a25.48,25.48,0,0,1-.39,3.31c-.06,1.27.09,2.55.05,3.82-.07,2.1,1.19,3.09,2.8,4.19a63.56,63.56,0,0,1,6.18,5.34A15.12,15.12,0,0,1,106.05,66c2,2.27,3.43,2.36,5.69.4s4.62-4,6.91-6c1.6-1.41,1.5-2.38-.53-3.07-2.19-.74-4.5-1.13-6.74-1.75-.67-.18-1.8-.63-1.8-1a3.73,3.73,0,0,1,.9-2.42c.32-.34,1.38-.18,2,0,2.56.71,5.06,1.73,7.66,2.19A4.27,4.27,0,0,0,123.37,53a71.71,71.71,0,0,0,5.37-7,26.87,26.87,0,0,0,1.38-3.34c.29-.57.87-1.4,1.32-1.4a5.23,5.23,0,0,1,2.48.9,4.29,4.29,0,0,1-.64,1.77c-1.7,2.63-3.46,5.21-5.31,8,2.09.61,3.8.7,5-.86,1.87-2.39,3.56-4.93,5.42-7.34.4-.52,1.39-1.16,1.77-1a5.34,5.34,0,0,1,2.14,2c.15.23-.57,1.19-1,1.63a24.14,24.14,0,0,0-2.67,2.05,19.27,19.27,0,0,0-4.34,9.32c1.06-.79,2.12-1.57,3.16-2.38a22.1,22.1,0,0,1,2.14-1.75c.54-.33,1.47-.67,1.85-.43a2.57,2.57,0,0,1,1,1.89c0,.48-.82,1-1.36,1.38-1.26.88-2.79,1.49-3.8,2.59-2.58,2.81-5.8,4.31-9.26,5.73-2.41,1-4.47,2.88-6.59,4.5s-4.4,3.61-6.59,5.43c-.87.73-1.76,1.44-2.59,2.21-1.72,1.61-2.91,1.6-4.76.12-2.73-2.2-5.54-4.3-8.32-6.44a7.26,7.26,0,0,0-.87-.51c.87,7.54,1,14.91-3.48,21.49L106.14,90a13,13,0,0,1-.74-2.21c-.09-.71-.15-2,.15-2.08a8.9,8.9,0,0,1,3.4-.64c.23,0,.64,1.16.68,1.8a19.93,19.93,0,0,1-.17,2.77L115,92.7c.54-2.45,2.48-4.78,1.77-7.87a2.09,2.09,0,0,1,1-1.76,8.88,8.88,0,0,1,3.38.41,2.26,2.26,0,0,1,.06,1.79c-1.86,2.81-2.11,6.13-3,9.24a12.27,12.27,0,0,0-.49,3.91,7.28,7.28,0,0,0,1.18-.86c2.94-3.06,5.9-6.1,8.75-9.25a10.66,10.66,0,0,0,1.22-2.64c.42-.86.75-2.21,1.92-1.83A5.05,5.05,0,0,1,133.33,86c.57,1-.42,1.75-1.24,2.36a7.48,7.48,0,0,0-1.48,1.32q-4.55,5.77-9,11.61a5.08,5.08,0,0,0-.49,1.5c.59.07,1.26.36,1.76.18,1.88-.68,3.69-1.55,5.55-2.26.57-.22,1.62-.41,1.78-.16a4,4,0,0,1,.71,2.37,1.81,1.81,0,0,1-1.28,1.23c-3.59.2-6.6,2.06-9.84,3.24-1.79.65-3.62,1.21-5.4,1.91a38.66,38.66,0,0,0-3.63,1.71c-4.8,2.53-9.56,5.14-14.4,7.6a6.64,6.64,0,0,1-3.17.53c-2.51-.09-4.11-2.13-3.23-4.46a39.17,39.17,0,0,1,3.28-5.93A27.87,27.87,0,0,1,94.94,106.43Z"/></g></g></svg>