<svg xmlns="http://www.w3.org/2000/svg" viewBox="0 0 43.07 35"><defs><style>.cls-1{fill:#c1272d;}</style></defs><g id="Layer_2" data-name="Layer 2"><g id="Layer_1-2" data-name="Layer 1"><path class="cls-1" d="M21.78,35c-1.72-1.53-3.28-3-5-4.39-2.68-2.14-5.45-4.16-8.17-6.25a31.55,31.55,0,0,1-6-5.84A12.44,12.44,0,0,1,0,11.14C-.09,6,2.83,1.47,8.41.29A10.8,10.8,0,0,1,20.69,6l.78,1.5c.17-.31.3-.51.4-.73A11.4,11.4,0,0,1,27.71.92c5-2.14,11.2-.37,13.87,4.13A10.84,10.84,0,0,1,43,9.54C43.44,13.65,41.74,17,39.23,20a40,40,0,0,1-6.4,5.65c-2.8,2.19-5.6,4.4-8.37,6.65-.86.7-1.61,1.56-2.41,2.35A2.79,2.79,0,0,0,21.78,35Z"/></g></g></svg>