<svg xmlns="http://www.w3.org/2000/svg" viewBox="0 0 104.42 88.97"><defs><style>.cls-1{fill:#c1272d;}</style></defs><g id="Layer_2" data-name="Layer 2"><g id="Layer_1-2" data-name="Layer 1"><path class="cls-1" d="M96.78,73.75,83.57,69.48c4.14,4.3,7.85,8.28,12.75,11.09a35.77,35.77,0,0,1,6.2,4.68c.92.85,1.28,2.28,1.9,3.45L104,89c-.55-.29-1.1-.57-1.63-.88A107.31,107.31,0,0,0,67.5,74.78c-3.74-.69-7.53-1.19-11.3-1.68a2.69,2.69,0,0,0-1.84.54,31.47,31.47,0,0,0-4.56,4.2c-.87,1.06-1.14,2.59-1.65,3.86,2.39,1.18,5.42-.59,6.75,2.58-2.39-.2-4.62-.4-6.86-.56-.65,0-1.61-.59-1.69.73a2.16,2.16,0,0,1-.92.11c-7.7-.92-15.4-.38-23.09,0A17.31,17.31,0,0,1,20,84.43l-.07-.75a16.49,16.49,0,0,1,2.36-.56c2.91-.28,5.83-.54,8.76-.7a7.11,7.11,0,0,0,5.24-2.48c2.36-2.86,4.49-5.89,6.69-8.82-4-1.65-7.72-2.87-11.11-4.69-11.55-6.22-19.48-15.36-23-27.8a16.69,16.69,0,0,1,1.75-13.31,63.91,63.91,0,0,0,3.13-6.45c1-2.36.31-4.41-1.42-6.25C11,11.18,9.7,10,7.33,10S2.61,9.32,0,8.88A7.51,7.51,0,0,1,5.08,5.45a13.31,13.31,0,0,0,5.55-2.52c5.62-4.28,13.93-3.76,20.14.85,4.42,3.28,7.24,7.69,9.69,12.39A7.65,7.65,0,0,1,41,17.25c1.37,4.3,4.63,7.16,8,10,10.85,9.4,21.75,18.77,32.35,28.42A93.35,93.35,0,0,1,96.78,73.75Zm-49.56-2c-2.33,3.46-7.34,5.07-7.27,10,3.35.46,8.31-4.62,10.3-9.51Z"/></g></g></svg>