<svg xmlns="http://www.w3.org/2000/svg" viewBox="0 0 51.07 68.45"><defs><style>.cls-1{fill:#c1272d;}</style></defs><g id="Layer_2" data-name="Layer 2"><g id="Layer_1-2" data-name="Layer 1"><path class="cls-1" d="M25.35,36.43a15,15,0,0,1-1.71-3.79,15.39,15.39,0,0,1,.87-11.08,79.12,79.12,0,0,1,3.84-7.15c.62-1.08,1.22-2.17,1.88-3.35,0,.4.1.73.11,1,0,1.24.05,2.49.08,3.73,0,.62,0,1.24.08,1.85a1.89,1.89,0,0,0,.89,1.51,3.26,3.26,0,0,0,4.1,0,6.12,6.12,0,0,0,2-3,16.28,16.28,0,0,0,.74-6.72A28.21,28.21,0,0,0,36,.62,1.76,1.76,0,0,1,35.84,0l.28.19A50.51,50.51,0,0,1,44.9,9.42a33.29,33.29,0,0,1,5.59,12.34,21,21,0,0,1-.8,12.48,13.63,13.63,0,0,1-8,8.17A8.82,8.82,0,0,1,39.1,43a18.6,18.6,0,0,1-4.83-.09,11.86,11.86,0,0,1-1.55-.43c-.34-.12-.39-.3-.14-.57q.75-.78,1.53-1.53A1.87,1.87,0,0,1,35.28,40a6,6,0,0,0,3.35-1.51C40.1,37,41.54,35.56,42.9,34a6.23,6.23,0,0,0-3.52-10,5.83,5.83,0,0,0-5.65,1.48C32.46,26.73,31.24,28,30,29.22a6.63,6.63,0,0,0-1.82,3.91,1.51,1.51,0,0,1-.48,1c-.72.67-1.4,1.37-2.09,2.06Z"/><path class="cls-1" d="M41.93,30.23a3,3,0,0,1-.87,2.45q-2,2-3.93,4a3.43,3.43,0,0,1-2.86,1,1.49,1.49,0,0,0-1.31.52Q19.78,51.52,6.55,64.81c-1,1-2.09,2-3.14,3a1.69,1.69,0,0,1-2.19.37,2.12,2.12,0,0,1-1.22-2,1.47,1.47,0,0,1,.41-1C2.22,63.29,4,61.38,5.82,59.53Q18,47.22,30.21,34.92a.85.85,0,0,0,.28-.7,10.8,10.8,0,0,1,.08-1.39,2.91,2.91,0,0,1,.86-1.65c1.36-1.4,2.73-2.8,4.14-4.14,1.83-1.74,4.87-.61,5.73.94A3.67,3.67,0,0,1,41.93,30.23Z"/></g></g></svg>